<svg xmlns="http://www.w3.org/2000/svg" width="256" height="256" viewBox="0 0 100 100"><rect width="100" height="100" rx="50" fill="#589df6"></rect><path fill="#fff" d="M43.10 71L19.94 71Q19.34 71 18.98 70.64Q18.62 70.28 18.62 69.68L18.62 69.68L18.62 30.32Q18.62 29.72 18.98 29.36Q19.34 29 19.94 29L19.94 29L21.08 29Q21.68 29 22.04 29.36Q22.40 29.72 22.40 30.32L22.40 30.32L22.40 67.40L43.10 67.40Q43.76 67.40 44.12 67.76Q44.48 68.12 44.48 68.78L44.48 68.78L44.48 69.68Q44.48 70.28 44.12 70.64Q43.76 71 43.10 71L43.10 71ZM68.90 71L52.82 71Q52.22 71 51.86 70.64Q51.50 70.28 51.50 69.68L51.50 69.68L51.50 30.38Q51.50 29.72 51.86 29.36Q52.22 29 52.82 29L52.82 29L68.48 29Q72.68 29 75.35 30.50Q78.02 32 79.28 34.43Q80.54 36.86 80.54 39.74L80.54 39.74Q80.54 42.32 79.73 44.15Q78.92 45.98 77.69 47.12Q76.46 48.26 75.26 48.86L75.26 48.86Q77.66 50.06 79.52 52.70Q81.38 55.34 81.38 59.12L81.38 59.12Q81.38 62.12 79.97 64.85Q78.56 67.58 75.77 69.29Q72.98 71 68.90 71L68.90 71ZM55.28 50.84L55.28 67.40L68.30 67.40Q72.74 67.40 75.17 65.06Q77.60 62.72 77.60 59.12L77.60 59.12Q77.60 55.46 75.17 53.15Q72.74 50.84 68.30 50.84L68.30 50.84L55.28 50.84ZM55.28 32.60L55.28 47.24L67.70 47.24Q72.14 47.24 74.45 45.26Q76.76 43.28 76.76 39.74L76.76 39.74Q76.76 36.20 74.45 34.40Q72.14 32.60 67.70 32.60L67.70 32.60L55.28 32.60Z"></path></svg>